<svg viewBox="0 0 24 24" xmlns="http://www.w3.org/2000/svg"><path d="m0 0h24v24h-24z" fill="#fff" opacity="0"/><g fill="#231f20"><path d="m9.71 11.29a1 1 0 0 0 -1.42 1.42l3 3a1 1 0 0 0 .71.29 1 1 0 0 0 .72-.34l7-8a1 1 0 0 0 -1.5-1.32l-6.22 7.2z"/><path d="m21 11a1 1 0 0 0 -1 1 8 8 0 0 1 -8 8 8 8 0 0 1 -5.67-13.64 7.93 7.93 0 0 1 5.67-2.36 8.79 8.79 0 0 1 1.9.22 1 1 0 1 0 .47-1.94 10.54 10.54 0 0 0 -2.37-.28 10 10 0 0 0 -7 17.09 9.93 9.93 0 0 0 7 2.91 10 10 0 0 0 10-10 1 1 0 0 0 -1-1z"/></g></svg>