<svg width="18" height="18" viewBox="0 0 18 18" fill="none" xmlns="http://www.w3.org/2000/svg">
<path d="M6.57845 8.74708C6.40504 8.57705 6.16986 8.48153 5.92463 8.48153C5.6794 8.48153 5.44422 8.57705 5.27082 8.74708C5.09742 8.91711 5 9.14771 5 9.38817C5 9.62863 5.09742 9.85924 5.27082 10.0293L8.03341 12.7381C8.11946 12.8218 8.2215 12.888 8.3337 12.933C8.4459 12.9779 8.56603 13.0007 8.68723 13C8.81329 12.9961 8.93719 12.9668 9.05124 12.914C9.16529 12.8612 9.26707 12.7859 9.35025 12.693L15.7963 5.46936C15.9451 5.28816 16.0169 5.05762 15.9966 4.82581C15.9764 4.59399 15.8656 4.3788 15.6875 4.22509C15.5094 4.07139 15.2776 3.99104 15.0405 4.00079C14.8035 4.01055 14.5794 4.10966 14.415 4.27746L8.68723 10.7787L6.57845 8.74708Z" fill="#231F20"/>
<path d="M17.0977 8.1C16.8583 8.1 16.6288 8.19482 16.4596 8.3636C16.2904 8.53239 16.1953 8.76131 16.1953 9C16.1953 10.9096 15.4348 12.7409 14.081 14.0912C12.7272 15.4414 10.8911 16.2 8.97656 16.2C7.55094 16.1993 6.15743 15.7777 4.97175 14.9882C3.78607 14.1987 2.86131 13.0767 2.31409 11.7637C1.76687 10.4507 1.62169 9.00549 1.89686 7.6103C2.17202 6.21512 2.85521 4.93244 3.86028 3.924C4.52864 3.24845 5.32539 2.71264 6.20389 2.34793C7.0824 1.98323 8.02501 1.79695 8.97656 1.8C9.55357 1.8036 10.1285 1.87 10.691 1.998C10.8087 2.03432 10.9327 2.0462 11.0552 2.03292C11.1777 2.01963 11.2962 1.98146 11.4033 1.92076C11.5105 1.86006 11.604 1.77811 11.6782 1.67996C11.7524 1.58181 11.8056 1.46956 11.8346 1.3501C11.8636 1.23065 11.8678 1.10653 11.8469 0.98541C11.826 0.864285 11.7804 0.748718 11.713 0.645832C11.6456 0.542947 11.5578 0.454924 11.4549 0.38719C11.3521 0.319456 11.2365 0.273448 11.1151 0.252C10.4141 0.0875184 9.69668 0.00297668 8.97656 0C7.19384 0.00923718 5.4538 0.544969 3.97604 1.53959C2.49828 2.53421 1.34903 3.94314 0.673306 5.58858C-0.00241607 7.23402 -0.17432 9.04223 0.179287 10.785C0.532894 12.5278 1.39616 14.1271 2.66016 15.381C4.33553 17.0528 6.6067 17.9945 8.97656 18C11.3697 18 13.6649 17.0518 15.3571 15.364C17.0493 13.6761 18 11.3869 18 9C18 8.76131 17.9049 8.53239 17.7357 8.3636C17.5665 8.19482 17.337 8.1 17.0977 8.1Z" fill="#231F20"/>
</svg>
