<svg width="18" height="18" viewBox="0 0 18 18" fill="none" xmlns="http://www.w3.org/2000/svg">
<path d="M13.3569 12.8835H4.76811C3.54651 12.8835 3.54651 11.029 4.76811 11.029H13.3569C14.6008 11.029 14.6008 12.8835 13.3569 12.8835ZM13.7021 6.98455L11.555 8.43461C10.5368 9.12276 9.50108 7.59029 10.5192 6.90214L12.6663 5.45208C13.6889 4.76092 14.7247 6.29339 13.7021 6.98455ZM16.1486 13.8893C16.1486 14.0643 16.079 14.2323 15.9551 14.3563L14.3593 15.9521C14.2354 16.0758 14.0675 16.1457 13.8921 16.1457H4.1079C3.93253 16.1457 3.76456 16.0758 3.64067 15.9521L2.04488 14.3563C1.92099 14.2323 1.85135 14.0643 1.85135 13.8893V4.11128C1.85135 3.9359 1.92099 3.76793 2.04488 3.64422L3.64067 2.04805C3.76456 1.92434 3.93253 1.85471 4.1079 1.85471H13.8921C14.0675 1.85471 14.2354 1.92434 14.3593 2.04805L15.9551 3.64422C16.079 3.76793 16.1486 3.9359 16.1486 4.11128V13.8893ZM17.5068 2.57659L15.4233 0.493031C15.1076 0.177349 14.6795 0 14.233 0H3.76549C3.31881 0 2.89046 0.1776 2.57471 0.493539L0.492793 2.57677C0.177227 2.89253 0 3.32051 0 3.76701V14.2332C0 14.6797 0.177413 15.1082 0.493163 15.4236L2.57641 17.5069C2.89216 17.8226 3.3204 18 3.76692 18H14.2332C14.6797 18 15.1078 17.8227 15.4235 17.507L17.5068 15.4236C17.8226 15.1082 18 14.6797 18 14.2332V3.7672C18 3.32063 17.8226 2.89236 17.5068 2.57659ZM8.81916 7.66846C8.81916 8.90622 6.9678 8.90622 6.96781 7.66846C6.96781 6.73639 5.56872 6.73639 5.56872 7.66846C5.56872 8.90622 3.71736 8.90622 3.71736 7.66846C3.9014 4.26584 8.65884 4.29687 8.81916 7.66846Z" fill="black"/>
</svg>
