<svg height="512" width="512" xmlns="http://www.w3.org/2000/svg"><path d="m379.9294434 366.462677h-244.3031769c-34.7477951 0-34.7477951-52.7503357 0-52.7503357h244.3031769c35.3818969 0 35.3818969 52.7503357 0 52.7503357zm9.8188476-167.7905426-61.0731201 41.2457428c-28.9603882 19.5740356-58.4223328-24.0158386-29.4619446-43.5898132l61.0731201-41.2457428c29.0864258-19.6593628 58.5483704 23.9304504 29.4619446 43.5898132zm69.5909729 196.3991547c0 4.9779358-1.9806213 9.7557068-5.5046692 13.2850037l-45.3913879 45.3913574c-3.5240479 3.5187988-8.3018188 5.5046997-13.2902527 5.5046997h-278.3058853c-4.9884644 0-9.7662277-1.9859009-13.2902908-5.5046997l-45.3913536-45.3913574c-3.5240555-3.5292969-5.5046959-8.3070679-5.5046959-13.2850037v-278.12677c0-4.988472 1.9806404-9.7662277 5.5046959-13.2850189l45.3913612-45.4018898c3.5240555-3.5187874 8.3018188-5.4994316 13.2902832-5.4994316h278.3058777c4.9884338 0 9.7662048 1.9806366 13.2902527 5.4994316l45.3913879 45.4018898c3.5240479 3.5187912 5.5046692 8.2965622 5.5046692 13.2850189v278.12677zm38.6329651-321.7798157-59.2649841-59.2649727c-8.9793091-8.9793224-21.1578979-14.0238533-33.8565674-14.0238533h-297.743515c-12.705574 0-24.8896561 5.0516768-33.8710022 14.0382986l-59.2189417 59.2557993c-8.9760814 8.9813538-14.0172186 21.154892-14.0172186 33.8552017v297.701355c0 12.7003174 5.046412 24.8896484 14.0277586 33.8604736l59.256916 59.2569275c8.9811172 8.9811096 21.1621246 14.0266418 33.8633423 14.0266418h297.7081299c12.6985474 0 24.8770447-5.0444946 33.8562622-14.0237122l59.2598267-59.2598572c8.9813471-8.9707945 14.0277643-21.1601561 14.0277643-33.8604735v-297.6958008c0-12.7022247-5.045929-24.884201-14.027771-33.8660278zm-247.1160736 144.8340759c-.000061 35.2069092-52.6608276 35.2069092-52.6607666 0 0-26.5118866-39.7962341-26.5118866-39.7962341 0-.0000763 35.2069092-52.6608429 35.2069092-52.6607742 0 5.2347945-96.7847519 140.5574722-95.9021225 145.1177749 0z"/></svg>